# Blender 5.2.0 LTS
# www.blender.org
mtllib chopstick1.mtl
o Cube.001
v 0.367869 -0.014599 0.523674
v -0.327580 -0.021723 -0.549541
v 0.332556 -0.020376 0.546596
v -0.362893 -0.027500 -0.526619
v 0.362893 0.027500 0.526619
v -0.332556 0.020376 -0.546596
v 0.327580 0.021723 0.549541
v -0.367869 0.014599 -0.523674
vn 0.5438 0.0056 0.8392
vn -0.8310 -0.1360 0.5394
vn -0.1171 0.9907 0.0693
vn -0.5438 -0.0056 -0.8392
vn 0.1171 -0.9907 -0.0693
vn 0.8310 0.1360 -0.5394
vt 0.625000 0.500000
vt 0.875000 0.500000
vt 0.875000 0.750000
vt 0.625000 0.750000
vt 0.375000 0.750000
vt 0.625000 1.000000
vt 0.375000 1.000000
vt 0.375000 0.000000
vt 0.625000 0.000000
vt 0.625000 0.250000
vt 0.375000 0.250000
vt 0.125000 0.500000
vt 0.375000 0.500000
vt 0.125000 0.750000
s 1
usemtl Material.001
f 1/1/1 5/2/1 7/3/1 3/4/1
f 4/5/2 3/4/2 7/6/2 8/7/2
f 8/8/3 7/9/3 5/10/3 6/11/3
f 6/12/4 2/13/4 4/5/4 8/14/4
f 2/13/5 1/1/5 3/4/5 4/5/5
f 6/11/6 5/10/6 1/1/6 2/13/6
